<svg width="37" height="32" viewBox="0 0 37 32" fill="none" xmlns="http://www.w3.org/2000/svg">
<path d="M0 2.28571C0 1.67951 0.243638 1.09812 0.677316 0.66947C1.11099 0.240816 1.69919 0 2.3125 0H34.6875C35.3008 0 35.889 0.240816 36.3227 0.66947C36.7564 1.09812 37 1.67951 37 2.28571V6.85714C37 7.46335 36.7564 8.04473 36.3227 8.47339C35.889 8.90204 35.3008 9.14286 34.6875 9.14286V26.2857C34.6875 27.8012 34.0784 29.2547 32.9942 30.3263C31.91 31.398 30.4395 32 28.9062 32H8.09375C6.56047 32 5.08998 31.398 4.00579 30.3263C2.92159 29.2547 2.3125 27.8012 2.3125 26.2857V9.14286C1.69919 9.14286 1.11099 8.90204 0.677316 8.47339C0.243638 8.04473 0 7.46335 0 6.85714V2.28571ZM4.625 9.14286V26.2857C4.625 27.195 4.99046 28.0671 5.64097 28.7101C6.29149 29.3531 7.17378 29.7143 8.09375 29.7143H28.9062C29.8262 29.7143 30.7085 29.3531 31.359 28.7101C32.0095 28.0671 32.375 27.195 32.375 26.2857V9.14286H4.625ZM34.6875 2.28571H2.3125V6.85714H34.6875V2.28571ZM11.5625 14.8571C11.5625 14.554 11.6843 14.2633 11.9012 14.049C12.118 13.8347 12.4121 13.7143 12.7188 13.7143H24.2812C24.5879 13.7143 24.882 13.8347 25.0988 14.049C25.3157 14.2633 25.4375 14.554 25.4375 14.8571C25.4375 15.1602 25.3157 15.4509 25.0988 15.6653C24.882 15.8796 24.5879 16 24.2812 16H12.7188C12.4121 16 12.118 15.8796 11.9012 15.6653C11.6843 15.4509 11.5625 15.1602 11.5625 14.8571Z" fill="#A8A8A8"/>
</svg>
