<svg width="35" height="35" viewBox="0 0 35 35" fill="none" xmlns="http://www.w3.org/2000/svg">
<g clip-path="url(#clip0_4_16)">
<path d="M17.5 7.65625C17.5 7.36617 17.3848 7.08797 17.1796 6.88285C16.9745 6.67773 16.6963 6.5625 16.4063 6.5625C16.1162 6.5625 15.838 6.67773 15.6329 6.88285C15.4277 7.08797 15.3125 7.36617 15.3125 7.65625V19.6875C15.3126 19.8803 15.3636 20.0696 15.4604 20.2364C15.5572 20.4031 15.6963 20.5413 15.8637 20.6369L23.52 25.0119C23.7713 25.1477 24.0657 25.1798 24.3403 25.1014C24.6149 25.023 24.848 24.8403 24.9897 24.5923C25.1314 24.3443 25.1705 24.0508 25.0986 23.7744C25.0267 23.498 24.8495 23.2607 24.605 23.1131L17.5 19.0531V7.65625Z" fill="#A8A8A8"/>
<path d="M17.5 35C22.1413 35 26.5925 33.1563 29.8744 29.8744C33.1563 26.5925 35 22.1413 35 17.5C35 12.8587 33.1563 8.40752 29.8744 5.12563C26.5925 1.84374 22.1413 0 17.5 0C12.8587 0 8.40752 1.84374 5.12563 5.12563C1.84374 8.40752 0 12.8587 0 17.5C0 22.1413 1.84374 26.5925 5.12563 29.8744C8.40752 33.1563 12.8587 35 17.5 35ZM32.8125 17.5C32.8125 21.5611 31.1992 25.4559 28.3276 28.3276C25.4559 31.1992 21.5611 32.8125 17.5 32.8125C13.4389 32.8125 9.54408 31.1992 6.67243 28.3276C3.80078 25.4559 2.1875 21.5611 2.1875 17.5C2.1875 13.4389 3.80078 9.54408 6.67243 6.67243C9.54408 3.80078 13.4389 2.1875 17.5 2.1875C21.5611 2.1875 25.4559 3.80078 28.3276 6.67243C31.1992 9.54408 32.8125 13.4389 32.8125 17.5Z" fill="#A8A8A8"/>
</g>
<defs>
<clipPath id="clip0_4_16">
<rect width="35" height="35" fill="white"/>
</clipPath>
</defs>
</svg>
