<svg width="184" height="31" viewBox="0 0 184 31" fill="none" xmlns="http://www.w3.org/2000/svg">
<rect width="184" height="31" rx="15.5" fill="#FFDE8A"/>
<path d="M48.38 20.46C48.3933 20.82 48.3733 21.1867 48.32 21.56C48.2667 21.9333 48.0933 22.22 47.8 22.42C47.5733 22.5533 47.3667 22.62 47.18 22.62C46.9533 22.62 46.7667 22.54 46.62 22.38C46.4867 22.22 46.38 22.0267 46.3 21.8C46.2333 21.5733 46.1867 21.34 46.16 21.1C46.1467 20.8467 46.14 20.6267 46.14 20.44V15.3H44.84V20.56C44.8667 20.8667 44.8533 21.1867 44.8 21.52C44.76 21.84 44.6733 22.0933 44.54 22.28C44.46 22.3867 44.3467 22.4667 44.2 22.52C44.0533 22.5867 43.9067 22.62 43.76 22.62C43.6133 22.62 43.4733 22.5867 43.34 22.52C43.22 22.4533 43.1067 22.3667 43 22.26C42.7733 22.0333 42.64 21.76 42.6 21.44C42.56 21.12 42.54 20.8067 42.54 20.5V8.58C42.54 8.39333 42.5467 8.19333 42.56 7.98C42.5733 7.75333 42.6133 7.54 42.68 7.34C42.7467 7.14 42.84 6.96667 42.96 6.82C43.0933 6.66 43.2733 6.55333 43.5 6.5C43.8067 6.43333 44.0533 6.50667 44.24 6.72C44.5467 7.02667 44.72 7.42 44.76 7.9C44.8133 8.38 44.84 8.92 44.84 9.52V12.88H46.14V8.76C46.14 8.57333 46.14 8.36 46.14 8.12C46.14 7.86667 46.16 7.62667 46.2 7.4C46.2533 7.16 46.3467 6.96 46.48 6.8C46.6267 6.62667 46.84 6.52667 47.12 6.5C47.4267 6.47333 47.6667 6.56 47.84 6.76C48 6.92 48.12 7.13333 48.2 7.4C48.28 7.66667 48.3333 7.95333 48.36 8.26C48.3867 8.56667 48.4 8.87333 48.4 9.18C48.4 9.47333 48.3933 9.72667 48.38 9.94V20.46ZM38.16 19.14C38.1467 18.98 38.14 18.82 38.14 18.66C38.14 18.5 38.14 18.3467 38.14 18.2V15.36C37.8733 15.3733 37.62 15.38 37.38 15.38C37.14 15.3667 36.9267 15.3533 36.74 15.34C36.5533 15.34 36.4133 15.34 36.32 15.34C36.24 15.34 36.1667 15.34 36.1 15.34C36.0333 15.34 35.9533 15.34 35.86 15.34C35.78 15.34 35.6533 15.34 35.48 15.34C35.16 15.34 34.8267 15.3067 34.48 15.24C34.1467 15.1733 33.8467 15.0067 33.58 14.74C33.4067 14.5533 33.2933 14.38 33.24 14.22C33.1867 14.0467 33.2267 13.8467 33.36 13.62C33.5067 13.34 33.7267 13.16 34.02 13.08C34.3267 12.9867 34.6067 12.92 34.86 12.88C35.02 12.8533 35.1133 12.84 35.14 12.84C35.1667 12.84 35.18 12.84 35.18 12.84C35.1933 12.84 35.2133 12.8467 35.24 12.86C35.2667 12.86 35.36 12.8533 35.52 12.84H38.14V11.68C38.14 11.4667 38.14 11.22 38.14 10.94C38.14 10.66 38.1267 10.4067 38.1 10.18C38.1 10.1133 38.0933 10.0267 38.08 9.92C38.0667 9.8 38.0267 9.72667 37.96 9.7C37.8933 9.66 37.82 9.64667 37.74 9.66C37.6733 9.66 37.6067 9.65333 37.54 9.64C37.46 9.62667 37.38 9.62667 37.3 9.64C37.2333 9.65333 37.16 9.65333 37.08 9.64H36.18C35.9933 9.65333 35.7933 9.65333 35.58 9.64C35.38 9.62667 35.1867 9.62667 35 9.64C34.92 9.65333 34.84 9.66 34.76 9.66C34.68 9.64667 34.5933 9.64 34.5 9.64C34.3667 9.64 34.2333 9.63333 34.1 9.62C33.9667 9.60667 33.8467 9.55333 33.74 9.46C33.5667 9.32667 33.4533 9.19333 33.4 9.06C33.3467 8.92667 33.32 8.75333 33.32 8.54C33.3067 8.31333 33.3533 8.06667 33.46 7.8C33.5 7.65333 33.5733 7.54 33.68 7.46C33.7467 7.39333 33.8333 7.34 33.94 7.3C34.0467 7.24667 34.14 7.20667 34.22 7.18C34.46 7.11333 34.7067 7.08 34.96 7.08C35.2267 7.06667 35.4867 7.06 35.74 7.06H39C39.1467 7.08667 39.2933 7.11333 39.44 7.14C39.6 7.15333 39.7533 7.19333 39.9 7.26C39.9933 7.3 40.08 7.35333 40.16 7.42C40.2533 7.48667 40.3267 7.56667 40.38 7.66C40.4867 7.84667 40.5667 8.03333 40.62 8.22C40.6733 8.40667 40.7133 8.61333 40.74 8.84C40.82 9.22667 40.86 9.62667 40.86 10.04C40.86 10.4533 40.86 10.8467 40.86 11.22V17.74C40.86 17.7533 40.86 17.8533 40.86 18.04C40.8733 18.2267 40.88 18.4533 40.88 18.72C40.88 18.9733 40.88 19.2467 40.88 19.54C40.88 19.82 40.8733 20.0667 40.86 20.28C40.8333 20.5467 40.7467 20.82 40.6 21.1C40.4533 21.38 40.2267 21.5867 39.92 21.72C39.72 21.8133 39.5267 21.86 39.34 21.86C39.1933 21.86 39.02 21.8267 38.82 21.76C38.6333 21.68 38.5067 21.5667 38.44 21.42C38.2533 21.0067 38.16 20.54 38.16 20.02V19.14ZM58.3834 15.3C58.2234 15.3667 58.0568 15.4133 57.8834 15.44C57.7234 15.4533 57.5568 15.46 57.3834 15.46H53.0634C52.7701 15.46 52.4701 15.46 52.1634 15.46C51.8568 15.46 51.5501 15.4467 51.2434 15.42C50.9501 15.4067 50.7101 15.3 50.5234 15.1C50.3368 14.9 50.2301 14.6333 50.2034 14.3C50.1901 14.18 50.1768 14.0067 50.1634 13.78C50.1634 13.5533 50.1568 13.32 50.1434 13.08C50.1434 12.84 50.1434 12.6133 50.1434 12.4C50.1434 12.1867 50.1434 12.0267 50.1434 11.92V11.72C50.1301 11.5733 50.1301 11.4133 50.1434 11.24C50.1568 11.0667 50.2234 10.9067 50.3434 10.76C50.5301 10.5333 50.7834 10.4 51.1034 10.36C51.4368 10.3067 51.7568 10.28 52.0634 10.28H56.5834V9.1H52.5834C52.5034 9.1 52.4234 9.10667 52.3434 9.12C52.2634 9.12 52.1834 9.12 52.1034 9.12C52.0234 9.13333 51.9368 9.14 51.8434 9.14C51.7634 9.14 51.6768 9.14 51.5834 9.14C51.3168 9.14 51.0834 9.12 50.8834 9.08C50.6568 9.02667 50.4701 8.88 50.3234 8.64C50.2301 8.48 50.1701 8.30667 50.1434 8.12C50.1168 7.92 50.1301 7.73333 50.1834 7.56C50.2501 7.33333 50.4034 7.16667 50.6434 7.06C50.8834 6.94 51.0834 6.86667 51.2434 6.84C51.4434 6.8 51.6634 6.78 51.9034 6.78H52.2634C52.3301 6.78 52.3968 6.78667 52.4634 6.8C52.5301 6.8 52.5968 6.8 52.6634 6.8H56.7234C57.4168 6.8 57.9501 6.94 58.3234 7.22C58.7101 7.5 58.9034 7.89333 58.9034 8.4V10.54C58.9034 10.74 58.8568 10.9867 58.7634 11.28C58.6834 11.5733 58.5368 11.7867 58.3234 11.92C58.1501 12.0267 57.9701 12.0933 57.7834 12.12C57.6101 12.1333 57.4301 12.1333 57.2434 12.12H52.6234V13.44H57.1834C57.3168 13.44 57.4501 13.44 57.5834 13.44C57.7168 13.44 57.8501 13.4467 57.9834 13.46C58.2101 13.4733 58.3968 13.5533 58.5434 13.7C58.7034 13.8467 58.8168 14.02 58.8834 14.22C59.0434 14.74 58.8768 15.1 58.3834 15.3ZM62.1234 17.26C62.5234 17.2467 62.8368 17.28 63.0634 17.36C63.3034 17.44 63.4901 17.5467 63.6234 17.68C63.7568 17.8133 63.8434 17.96 63.8834 18.12C63.9234 18.28 63.9434 18.44 63.9434 18.6V20.92C63.9701 21.2133 63.9701 21.5067 63.9434 21.8C63.9168 22.08 63.8034 22.3067 63.6034 22.48C63.4168 22.6533 63.1701 22.74 62.8634 22.74C62.7968 22.74 62.6768 22.7333 62.5034 22.72C62.3301 22.72 62.2101 22.7067 62.1434 22.68C61.9701 22.6267 61.8301 22.5467 61.7234 22.44C61.6301 22.3333 61.5568 22.2133 61.5034 22.08C61.4501 21.9467 61.4168 21.8067 61.4034 21.66C61.3901 21.5 61.3768 21.3467 61.3634 21.2C61.3634 21.1467 61.3568 21.0467 61.3434 20.9C61.3434 20.74 61.3368 20.58 61.3234 20.42C61.3234 20.2467 61.3168 20.0867 61.3034 19.94C61.3034 19.7933 61.2968 19.6933 61.2834 19.64C61.2434 19.6267 61.1301 19.6133 60.9434 19.6C60.7701 19.5867 60.4368 19.58 59.9434 19.58C59.5168 19.58 59.2501 19.5867 59.1434 19.6C59.0501 19.6 58.9968 19.6067 58.9834 19.62H51.7634L51.7434 19.6C51.7434 19.6 51.6968 19.5867 51.6034 19.56C51.5234 19.5333 51.4301 19.4933 51.3234 19.44C51.2168 19.3867 51.1101 19.3133 51.0034 19.22C50.9101 19.1267 50.8568 19.0067 50.8434 18.86C50.7768 18.3533 50.8634 17.9533 51.1034 17.66C51.2634 17.4733 51.4368 17.3667 51.6234 17.34C51.8101 17.3 51.9101 17.28 51.9234 17.28L62.1234 17.26ZM64.3034 14.4C64.3034 14.4 64.2968 14.4467 64.2834 14.54C64.2701 14.6333 64.2434 14.74 64.2034 14.86C64.1634 14.98 64.1034 15.1067 64.0234 15.24C63.9434 15.36 63.8368 15.46 63.7034 15.54C63.5168 15.6467 63.3301 15.7 63.1434 15.7C62.9168 15.7 62.6968 15.6267 62.4834 15.48C62.3368 15.3733 62.2234 15.2333 62.1434 15.06C62.0368 14.86 61.9634 14.64 61.9234 14.4C61.8968 14.16 61.8768 13.9133 61.8634 13.66C61.8634 13.4067 61.8701 13.16 61.8834 12.92C61.8968 12.6667 61.9034 12.4267 61.9034 12.2C61.9168 11.6267 61.9234 11.06 61.9234 10.5C61.9234 9.92667 61.9234 9.36 61.9234 8.8V8.54C61.9101 8.39333 61.9034 8.24 61.9034 8.08C61.9168 7.90667 61.9434 7.74667 61.9834 7.6C62.0368 7.4 62.1568 7.18667 62.3434 6.96C62.4501 6.82667 62.5968 6.73333 62.7834 6.68C62.9834 6.61333 63.1968 6.59333 63.4234 6.62C63.8234 6.68667 64.0901 6.86 64.2234 7.14C64.3034 7.31333 64.3368 7.52667 64.3234 7.78C64.3234 8.03333 64.3168 8.18667 64.3034 8.24V14.4ZM77.4131 15.5C77.2265 15.4733 76.9798 15.46 76.6731 15.46C76.3798 15.4467 76.1398 15.4267 75.9531 15.4C75.7265 15.3867 75.5065 15.34 75.2931 15.26C75.0931 15.1667 74.9198 15.0467 74.7731 14.9C74.6265 14.7533 74.5265 14.58 74.4731 14.38C74.4198 14.1667 74.4265 13.9333 74.4931 13.68C74.5198 13.5733 74.5731 13.46 74.6531 13.34C74.7465 13.22 74.8331 13.1267 74.9131 13.06C75.0998 12.9267 75.2865 12.84 75.4731 12.8C75.5798 12.7867 75.7198 12.78 75.8931 12.78C76.0665 12.78 76.2465 12.78 76.4331 12.78C76.6198 12.78 76.7998 12.78 76.9731 12.78C77.1465 12.78 77.2865 12.7733 77.3931 12.76H77.4531V12.68C77.4531 12.52 77.4531 12.3867 77.4531 12.28C77.4665 12.1733 77.4731 12.0733 77.4731 11.98C77.4731 11.8867 77.4665 11.7867 77.4531 11.68C77.4531 11.5733 77.4531 11.4333 77.4531 11.26C77.4531 10.9133 77.4465 10.5733 77.4331 10.24C77.4331 9.89333 77.4398 9.55333 77.4531 9.22V8.94C77.4531 8.76667 77.4531 8.58 77.4531 8.38C77.4665 8.16667 77.4865 7.96 77.5131 7.76C77.5398 7.54667 77.5865 7.35333 77.6531 7.18C77.7198 6.99333 77.8131 6.84 77.9331 6.72C78.1331 6.54667 78.3465 6.46 78.5731 6.46H78.6131C78.9331 6.47333 79.1931 6.57333 79.3931 6.76C79.5931 6.93333 79.7465 7.14667 79.8531 7.4C79.9598 7.65333 80.0265 7.92 80.0531 8.2C80.0931 8.46667 80.1131 8.70667 80.1131 8.92V20.92C80.1131 20.9333 80.1131 21 80.1131 21.12C80.1131 21.2267 80.0998 21.36 80.0731 21.52C80.0465 21.68 80.0065 21.84 79.9531 22C79.8998 22.16 79.8131 22.2933 79.6931 22.4C79.5998 22.4933 79.4665 22.5667 79.2931 22.62C79.1198 22.6733 78.9598 22.7 78.8131 22.7C78.6665 22.7 78.5131 22.6733 78.3531 22.62C78.2065 22.5667 78.0865 22.4867 77.9931 22.38C77.8198 22.1933 77.7131 22 77.6731 21.8C77.6331 21.6 77.5998 21.3867 77.5731 21.16C77.5731 21.12 77.5665 21.08 77.5531 21.04C77.5531 21 77.5531 20.9533 77.5531 20.9C77.5265 20.6867 77.5131 20.46 77.5131 20.22C77.5131 19.98 77.5065 19.74 77.4931 19.5C77.4798 19.3533 77.4731 19.2133 77.4731 19.08C77.4731 18.9333 77.4731 18.7867 77.4731 18.64V18.18C77.4731 18.0467 77.4731 17.88 77.4731 17.68C77.4731 17.48 77.4665 17.2733 77.4531 17.06C77.4531 16.8467 77.4531 16.6467 77.4531 16.46C77.4531 16.26 77.4531 16.0867 77.4531 15.94C77.4531 15.8733 77.4531 15.8 77.4531 15.72C77.4531 15.64 77.4398 15.5667 77.4131 15.5ZM74.7131 19.14C74.8865 19.26 75.0065 19.42 75.0731 19.62C75.1531 19.82 75.1865 20.0267 75.1731 20.24C75.1598 20.4533 75.0998 20.6533 74.9931 20.84C74.8998 21.0267 74.7598 21.1667 74.5731 21.26C74.2798 21.42 73.9731 21.5267 73.6531 21.58C73.3331 21.6333 73.0198 21.66 72.7131 21.66H71.8931C71.5198 21.6733 71.1065 21.6733 70.6531 21.66C70.2131 21.6467 69.8065 21.6467 69.4331 21.66H69.0931C68.8665 21.66 68.6265 21.6533 68.3731 21.64C68.1331 21.6267 67.8865 21.5933 67.6331 21.54C67.3931 21.4867 67.1665 21.4133 66.9531 21.32C66.7398 21.2133 66.5665 21.0733 66.4331 20.9C66.2998 20.74 66.1998 20.5333 66.1331 20.28C66.0665 20.0133 66.0198 19.7533 65.9931 19.5C65.9665 19.2467 65.9531 19.0267 65.9531 18.84C65.9531 18.6533 65.9531 18.5467 65.9531 18.52V9.08C65.9531 9.06667 65.9531 9.00667 65.9531 8.9C65.9531 8.79333 65.9598 8.68 65.9731 8.56C65.9865 8.42667 66.0065 8.3 66.0331 8.18C66.0598 8.04667 66.0931 7.94 66.1331 7.86C66.2531 7.67333 66.3731 7.53333 66.4931 7.44C66.6131 7.34667 66.7731 7.28667 66.9731 7.26C67.0265 7.24667 67.0865 7.24 67.1531 7.24C67.2331 7.24 67.3131 7.23333 67.3931 7.22C67.4731 7.22 67.5665 7.21333 67.6731 7.2H72.1531H72.3931C72.4598 7.2 72.5265 7.20667 72.5931 7.22C72.6731 7.22 72.7465 7.21333 72.8131 7.2H72.8531C72.9865 7.2 73.1131 7.20667 73.2331 7.22C73.3531 7.23333 73.4731 7.26 73.5931 7.3C73.7131 7.32667 73.8331 7.36 73.9531 7.4C74.0731 7.44 74.1798 7.51333 74.2731 7.62C74.4331 7.79333 74.5331 8.01333 74.5731 8.28C74.5998 8.38667 74.6131 8.48667 74.6131 8.58C74.6265 8.67333 74.6198 8.77333 74.5931 8.88C74.5531 9.16 74.4398 9.40667 74.2531 9.62C74.0798 9.82 73.8398 9.92 73.5331 9.92H68.6931V11.66V12.06V12.88C68.9065 12.8933 69.0998 12.9 69.2731 12.9C69.4598 12.9 69.6265 12.9 69.7731 12.9C69.9331 12.9 70.0798 12.8933 70.2131 12.88H71.3731C71.4398 12.88 71.5065 12.8867 71.5731 12.9C71.6398 12.9 71.7065 12.8933 71.7731 12.88H72.3131C72.4598 12.88 72.6065 12.8933 72.7531 12.92C72.9131 12.9467 73.0598 13 73.1931 13.08C73.3931 13.2 73.5198 13.38 73.5731 13.62C73.6265 13.8467 73.6398 14.0667 73.6131 14.28C73.6131 14.3867 73.6065 14.4933 73.5931 14.6C73.5931 14.7067 73.5598 14.8 73.4931 14.88C73.3331 15.1067 73.1731 15.2467 73.0131 15.3C72.8531 15.34 72.6798 15.36 72.4931 15.36H70.8731C70.7931 15.3733 70.6931 15.38 70.5731 15.38H69.7531C69.5798 15.38 69.4065 15.38 69.2331 15.38C69.0598 15.38 68.8865 15.3733 68.7131 15.36C68.7265 15.8933 68.7265 16.32 68.7131 16.64C68.6998 16.9467 68.6931 17.1067 68.6931 17.12V18.04C68.6931 18.2267 68.7065 18.3933 68.7331 18.54C68.7598 18.6733 68.7865 18.7467 68.8131 18.76C68.9065 18.8133 69.0598 18.8533 69.2731 18.88C69.4865 18.9067 69.7198 18.92 69.9731 18.92H70.0531C70.2798 18.9067 70.5398 18.9 70.8331 18.9C71.1265 18.9 71.3865 18.9067 71.6131 18.92H72.5931C72.6331 18.92 72.6731 18.92 72.7131 18.92C72.7665 18.92 72.8198 18.9133 72.8731 18.9H73.2131C73.4265 18.9 73.6398 18.9067 73.8531 18.92C74.0665 18.9333 74.2798 18.9733 74.4931 19.04C74.5331 19.0533 74.5665 19.0667 74.5931 19.08C74.6331 19.0933 74.6731 19.1133 74.7131 19.14ZM100.957 21C101.171 21.0133 101.357 21.0667 101.517 21.16C101.677 21.24 101.791 21.3867 101.857 21.6C102.004 22.0933 101.831 22.4267 101.337 22.6C101.177 22.6667 101.011 22.7067 100.837 22.72C100.677 22.7333 100.531 22.74 100.397 22.74H91.2973C91.0307 22.74 90.7507 22.74 90.4573 22.74C90.164 22.74 89.8707 22.7333 89.5773 22.72C89.2173 22.7067 88.964 22.5933 88.8173 22.38C88.684 22.1667 88.604 21.9067 88.5773 21.6L88.4973 20.28C88.484 20.1333 88.484 19.96 88.4973 19.76C88.524 19.5467 88.5973 19.3667 88.7173 19.22C88.904 19.0333 89.1173 18.9133 89.3573 18.86C89.5973 18.8067 89.864 18.78 90.1573 18.78H90.7773C90.844 18.78 90.8973 18.7867 90.9373 18.8C90.9773 18.8 91.0173 18.8 91.0573 18.8H99.5773V18.1H90.8573C90.7907 18.1 90.7173 18.1 90.6373 18.1C90.5707 18.0867 90.4973 18.0867 90.4173 18.1H89.9373C89.804 18.1 89.684 18.1 89.5773 18.1C89.4707 18.1 89.364 18.0867 89.2573 18.06C89.1373 18.0333 89.024 18.0067 88.9173 17.98C88.824 17.9533 88.744 17.8867 88.6773 17.78C88.5973 17.6333 88.544 17.4933 88.5173 17.36C88.4907 17.2267 88.504 17.08 88.5573 16.92C88.5973 16.8133 88.6573 16.7333 88.7373 16.68C88.8173 16.6133 88.9107 16.56 89.0173 16.52C89.124 16.48 89.224 16.4533 89.3173 16.44C89.424 16.4133 89.5173 16.3933 89.5973 16.38C89.704 16.3667 89.804 16.36 89.8973 16.36C90.004 16.3467 90.1107 16.34 90.2173 16.34H90.5573C90.624 16.3533 90.684 16.36 90.7373 16.36C90.804 16.36 90.8707 16.36 90.9373 16.36H99.7773C100.457 16.36 100.977 16.4667 101.337 16.68C101.697 16.88 101.877 17.2133 101.877 17.68V19.08C101.877 19.2667 101.831 19.4467 101.737 19.62C101.657 19.7933 101.511 19.9467 101.297 20.08C101.124 20.1867 100.951 20.2467 100.777 20.26C100.604 20.26 100.431 20.26 100.257 20.26H90.9573V21H100.957ZM87.9773 14.98C87.7907 14.9 87.6573 14.7467 87.5773 14.52C87.4707 14.2533 87.4507 13.9867 87.5173 13.72C87.5973 13.4533 87.7173 13.2 87.8773 12.96C88.0373 12.72 88.2173 12.4933 88.4173 12.28C88.6307 12.0667 88.8107 11.8667 88.9573 11.68C89.184 11.4 89.4107 11.12 89.6373 10.84C89.864 10.56 90.0907 10.2733 90.3173 9.98C90.3973 9.87333 90.4907 9.76 90.5973 9.64C90.704 9.52 90.804 9.39333 90.8973 9.26C91.004 9.12667 91.0907 8.99333 91.1573 8.86C91.224 8.72667 91.264 8.58667 91.2773 8.44C91.2907 8.21333 91.304 7.99333 91.3173 7.78C91.3307 7.55333 91.3707 7.35333 91.4373 7.18C91.504 6.99333 91.6107 6.84667 91.7573 6.74C91.9173 6.63333 92.144 6.58 92.4373 6.58C92.6507 6.58 92.8573 6.60667 93.0573 6.66C93.2573 6.7 93.404 6.82667 93.4973 7.04C93.5907 7.28 93.6173 7.54667 93.5773 7.84C93.5507 8.12 93.5773 8.38667 93.6573 8.64C93.724 8.86667 93.8373 9.06667 93.9973 9.24C94.1573 9.4 94.2907 9.57333 94.3973 9.76C94.624 10.1733 94.8907 10.54 95.1973 10.86C95.504 11.18 95.7907 11.5267 96.0573 11.9C96.2707 12.18 96.4707 12.4733 96.6573 12.78C96.8573 13.0733 96.9907 13.3933 97.0573 13.74C97.124 14.0333 97.0907 14.2867 96.9573 14.5C96.8373 14.7 96.6707 14.8467 96.4573 14.94C96.244 15.0333 96.0107 15.0667 95.7573 15.04C95.504 15 95.284 14.8867 95.0973 14.7C94.604 14.1933 94.1507 13.6733 93.7373 13.14C93.3373 12.5933 92.924 12.04 92.4973 11.48C92.4973 11.48 92.4373 11.5467 92.3173 11.68C92.1973 11.8 92.044 11.96 91.8573 12.16C91.6707 12.3467 91.4707 12.56 91.2573 12.8C91.044 13.0267 90.844 13.2467 90.6573 13.46C90.4707 13.6733 90.304 13.86 90.1573 14.02C90.0107 14.1667 89.924 14.26 89.8973 14.3C89.7507 14.4733 89.5973 14.6267 89.4373 14.76C89.2773 14.8933 89.084 14.9867 88.8573 15.04C88.7107 15.0667 88.5573 15.08 88.3973 15.08C88.2507 15.08 88.1107 15.0467 87.9773 14.98ZM101.817 13.96C101.804 14.1067 101.784 14.26 101.757 14.42C101.744 14.5667 101.697 14.7133 101.617 14.86C101.524 15.0333 101.411 15.16 101.277 15.24C101.091 15.3867 100.871 15.46 100.617 15.46C100.417 15.46 100.231 15.4067 100.057 15.3C99.8707 15.1933 99.724 15.0267 99.6173 14.8C99.5107 14.5733 99.4573 14.3667 99.4573 14.18V12.02C99.2307 12.02 98.9973 12.0133 98.7573 12C98.5307 11.9733 98.344 11.9467 98.1973 11.92C97.8107 11.8667 97.4907 11.7533 97.2373 11.58C96.9973 11.3933 96.9107 11.08 96.9773 10.64C97.0307 10.3467 97.1173 10.1267 97.2373 9.98C97.3707 9.82 97.584 9.73333 97.8773 9.72C97.9707 9.72 98.0573 9.72 98.1373 9.72C98.2307 9.70667 98.3307 9.7 98.4373 9.7C98.5973 9.7 98.764 9.7 98.9373 9.7C99.1107 9.68667 99.284 9.68 99.4573 9.68V8.18C99.4573 8.15333 99.4507 8.08667 99.4373 7.98C99.4373 7.87333 99.4373 7.76 99.4373 7.64C99.4373 7.50667 99.444 7.38 99.4573 7.26C99.484 7.12667 99.5173 7.02 99.5573 6.94C99.624 6.82 99.724 6.72 99.8573 6.64C99.9907 6.54667 100.151 6.48667 100.337 6.46C100.564 6.43333 100.771 6.44667 100.957 6.5C101.157 6.55333 101.311 6.64 101.417 6.76C101.604 6.96 101.724 7.16667 101.777 7.38C101.817 7.51333 101.837 7.70667 101.837 7.96C101.851 8.21333 101.851 8.41333 101.837 8.56V9.64C101.837 10.44 101.837 11.1867 101.837 11.88C101.837 12.56 101.831 13.2533 101.817 13.96ZM109.292 15.22C109.198 15.2333 108.985 15.24 108.652 15.24C108.332 15.24 107.985 15.24 107.612 15.24C107.238 15.2267 106.885 15.22 106.552 15.22C106.218 15.22 105.998 15.22 105.892 15.22H105.872C105.632 15.22 105.392 15.22 105.152 15.22C104.925 15.2067 104.705 15.1867 104.492 15.16C104.278 15.12 104.085 15.06 103.912 14.98C103.738 14.9 103.598 14.78 103.492 14.62C103.372 14.4467 103.285 14.2267 103.232 13.96C103.192 13.6933 103.158 13.44 103.132 13.2C103.118 12.9467 103.112 12.7267 103.112 12.54C103.125 12.3533 103.132 12.2533 103.132 12.24V11.8C103.132 11.6533 103.132 11.4867 103.132 11.3C103.132 11.1133 103.138 10.9067 103.152 10.68C103.152 10.44 103.152 10.2067 103.152 9.98C103.165 9.74 103.172 9.52667 103.172 9.34V8.7C103.172 8.66 103.172 8.58667 103.172 8.48C103.172 8.37333 103.178 8.26 103.192 8.14C103.205 8.00667 103.225 7.88 103.252 7.76C103.278 7.62667 103.318 7.52 103.372 7.44C103.492 7.25333 103.612 7.12 103.732 7.04C103.865 6.94667 104.032 6.88 104.232 6.84C104.298 6.82667 104.398 6.82 104.532 6.82C104.665 6.80667 104.792 6.79333 104.912 6.78C105.058 6.76667 105.212 6.76 105.372 6.76H109.892C110.185 6.76 110.492 6.78667 110.812 6.84C111.145 6.88 111.438 6.98 111.692 7.14C111.892 7.26 112.032 7.41333 112.112 7.6C112.192 7.78667 112.245 7.98667 112.272 8.2C112.298 8.41333 112.305 8.63333 112.292 8.86C112.278 9.07333 112.272 9.27333 112.272 9.46C112.272 9.67333 112.265 9.88667 112.252 10.1C112.252 10.3 112.258 10.5067 112.272 10.72V11.82C112.258 11.8867 112.252 11.96 112.252 12.04C112.265 12.12 112.272 12.2 112.272 12.28C112.245 12.4533 112.238 12.6267 112.252 12.8C112.265 12.96 112.272 13.1333 112.272 13.32C112.272 13.4667 112.258 13.6267 112.232 13.8C112.218 13.96 112.178 14.1267 112.112 14.3C112.058 14.46 111.978 14.6067 111.872 14.74C111.778 14.8733 111.652 14.9667 111.492 15.02C111.145 15.1667 110.778 15.24 110.392 15.24C110.018 15.2267 109.652 15.22 109.292 15.22ZM104.552 19.6C104.552 19 104.725 18.5 105.072 18.1C105.432 17.7 105.912 17.3867 106.512 17.16C107.112 16.92 107.818 16.7533 108.632 16.66C109.445 16.5667 110.312 16.52 111.232 16.52C112.152 16.52 113.018 16.5533 113.832 16.62C114.645 16.6867 115.352 16.8333 115.952 17.06C116.552 17.2733 117.025 17.58 117.372 17.98C117.732 18.38 117.912 18.92 117.912 19.6C117.912 20.2667 117.732 20.8 117.372 21.2C117.025 21.6 116.552 21.9067 115.952 22.12C115.352 22.3467 114.645 22.4933 113.832 22.56C113.018 22.64 112.152 22.68 111.232 22.68C110.312 22.68 109.445 22.64 108.632 22.56C107.818 22.4933 107.112 22.3467 106.512 22.12C105.912 21.9067 105.432 21.6 105.072 21.2C104.725 20.8 104.552 20.2667 104.552 19.6ZM114.832 14.08C114.738 14.08 114.618 14.0733 114.472 14.06C114.338 14.0467 114.198 14.02 114.052 13.98C113.918 13.94 113.792 13.8867 113.672 13.82C113.552 13.7533 113.458 13.66 113.392 13.54C113.352 13.4867 113.318 13.4133 113.292 13.32C113.278 13.2267 113.265 13.1333 113.252 13.04C113.252 12.9333 113.252 12.8333 113.252 12.74C113.265 12.6467 113.278 12.5733 113.292 12.52C113.318 12.3733 113.392 12.2467 113.512 12.14C113.632 12.02 113.772 11.9267 113.932 11.86C113.985 11.8467 114.085 11.8333 114.232 11.82C114.392 11.8067 114.552 11.8 114.712 11.8H115.312C115.298 11.6533 115.292 11.5133 115.292 11.38V10.76H114.832C114.738 10.76 114.618 10.7533 114.472 10.74C114.338 10.7267 114.198 10.7 114.052 10.66C113.918 10.62 113.792 10.5667 113.672 10.5C113.552 10.4333 113.458 10.34 113.392 10.22C113.285 10.0467 113.232 9.86667 113.232 9.68C113.232 9.48 113.272 9.3 113.352 9.14C113.445 8.96667 113.565 8.82667 113.712 8.72C113.872 8.6 114.058 8.53333 114.272 8.52C114.285 8.52 114.345 8.52 114.452 8.52C114.572 8.52 114.698 8.52 114.832 8.52C114.965 8.52 115.085 8.52 115.192 8.52C115.298 8.50667 115.352 8.48667 115.352 8.46C115.378 8.32667 115.385 8.18 115.372 8.02C115.372 7.86 115.378 7.7 115.392 7.54C115.405 7.38 115.432 7.23333 115.472 7.1C115.525 6.95333 115.618 6.82667 115.752 6.72C115.858 6.64 115.985 6.58667 116.132 6.56C116.278 6.53333 116.418 6.51333 116.552 6.5C116.885 6.46 117.172 6.57333 117.412 6.84C117.505 6.96 117.572 7.07333 117.612 7.18C117.665 7.34 117.685 7.50667 117.672 7.68C117.672 7.85333 117.672 8.02667 117.672 8.2V13.94C117.672 13.94 117.672 14.0267 117.672 14.2C117.672 14.3733 117.658 14.5667 117.632 14.78C117.605 14.9933 117.558 15.2067 117.492 15.42C117.438 15.62 117.345 15.76 117.212 15.84C117.118 15.8933 117.005 15.9333 116.872 15.96C116.738 15.9867 116.618 16 116.512 16C116.285 16 116.065 15.9267 115.852 15.78C115.692 15.6733 115.578 15.5467 115.512 15.4C115.472 15.32 115.438 15.22 115.412 15.1C115.385 14.98 115.365 14.86 115.352 14.74C115.338 14.6067 115.325 14.48 115.312 14.36C115.298 14.24 115.292 14.1467 115.292 14.08H114.832ZM106.732 9.26C106.612 9.26 106.498 9.26 106.392 9.26C106.298 9.26 106.212 9.27333 106.132 9.3C105.945 9.31333 105.792 9.39333 105.672 9.54C105.618 9.60667 105.585 9.70667 105.572 9.84C105.572 9.97333 105.572 10.0533 105.572 10.08V10.92C105.558 11.0267 105.552 11.1267 105.552 11.22C105.552 11.3 105.552 11.3733 105.552 11.44V11.68C105.552 11.68 105.552 11.72 105.552 11.8C105.552 11.88 105.552 11.9733 105.552 12.08C105.565 12.1867 105.585 12.2933 105.612 12.4C105.638 12.5067 105.685 12.6 105.752 12.68C105.858 12.8133 106.032 12.8933 106.272 12.92C106.512 12.9333 106.752 12.94 106.992 12.94H107.012C107.358 12.9267 107.645 12.9267 107.872 12.94C108.098 12.94 108.392 12.94 108.752 12.94C108.858 12.94 108.965 12.9467 109.072 12.96C109.192 12.96 109.305 12.9467 109.412 12.92C109.518 12.9067 109.592 12.8733 109.632 12.82C109.672 12.7667 109.705 12.7 109.732 12.62C109.758 12.5133 109.772 12.4267 109.772 12.36C109.825 12.1067 109.852 11.82 109.852 11.5C109.852 11.2867 109.852 11.0733 109.852 10.86C109.865 10.6467 109.865 10.4333 109.852 10.22C109.838 10.1133 109.832 10.0067 109.832 9.9C109.845 9.79333 109.838 9.68667 109.812 9.58C109.758 9.43333 109.672 9.35333 109.552 9.34C109.432 9.31333 109.312 9.3 109.192 9.3L106.732 9.26ZM115.212 19.6C115.212 19.3733 115.092 19.1933 114.852 19.06C114.612 18.9267 114.298 18.8267 113.912 18.76C113.538 18.6933 113.112 18.6533 112.632 18.64C112.165 18.6133 111.698 18.6 111.232 18.6C110.765 18.6 110.298 18.6133 109.832 18.64C109.378 18.6533 108.965 18.6933 108.592 18.76C108.232 18.8267 107.938 18.9267 107.712 19.06C107.485 19.1933 107.372 19.3733 107.372 19.6C107.372 19.8 107.485 19.9667 107.712 20.1C107.938 20.2333 108.232 20.3333 108.592 20.4C108.965 20.4667 109.378 20.5133 109.832 20.54C110.298 20.5667 110.765 20.58 111.232 20.58C111.698 20.58 112.165 20.58 112.632 20.58C113.112 20.58 113.538 20.5533 113.912 20.5C114.298 20.4467 114.612 20.3533 114.852 20.22C115.092 20.0733 115.212 19.8667 115.212 19.6ZM132.647 19.04C132.687 19.0533 132.727 19.06 132.767 19.06C132.807 19.0467 132.847 19.04 132.887 19.04C133.114 19.0667 133.321 19.1133 133.507 19.18C133.707 19.2333 133.901 19.34 134.087 19.5C134.274 19.6867 134.367 19.92 134.367 20.2C134.367 20.3467 134.341 20.5067 134.287 20.68C134.247 20.84 134.187 20.9667 134.107 21.06C134.001 21.1667 133.867 21.2467 133.707 21.3C133.547 21.3533 133.394 21.3933 133.247 21.42C133.101 21.4333 132.967 21.44 132.847 21.44C132.741 21.44 132.681 21.44 132.667 21.44H121.467C121.401 21.44 121.334 21.4467 121.267 21.46C121.201 21.46 121.134 21.46 121.067 21.46C120.787 21.4733 120.487 21.4733 120.167 21.46C119.847 21.4333 119.574 21.3267 119.347 21.14C119.067 20.8867 118.927 20.6 118.927 20.28C118.927 20.08 118.987 19.8733 119.107 19.66C119.227 19.4467 119.387 19.3 119.587 19.22C119.854 19.1133 120.127 19.06 120.407 19.06C120.701 19.06 120.994 19.0533 121.287 19.04H121.387C122.547 19.0133 123.741 19.0133 124.967 19.04L124.947 16.28C124.441 16.2933 123.981 16.3 123.567 16.3C123.167 16.3 122.847 16.2867 122.607 16.26C122.327 16.2467 122.021 16.2267 121.687 16.2C121.354 16.16 121.074 16.0533 120.847 15.88C120.701 15.76 120.581 15.5933 120.487 15.38C120.407 15.1667 120.347 14.9533 120.307 14.74C120.267 14.5267 120.241 14.34 120.227 14.18C120.227 14.0067 120.227 13.9133 120.227 13.9V9.6C120.227 9.33333 120.214 9.06667 120.187 8.8C120.174 8.53333 120.194 8.26667 120.247 8C120.287 7.84 120.354 7.71333 120.447 7.62C120.554 7.51333 120.674 7.43333 120.807 7.38C120.954 7.31333 121.107 7.26667 121.267 7.24C121.441 7.21333 121.601 7.19333 121.747 7.18C121.867 7.18 121.994 7.18667 122.127 7.2C122.261 7.21333 122.387 7.24667 122.507 7.3C122.627 7.34 122.727 7.40667 122.807 7.5C122.901 7.58 122.961 7.68667 122.987 7.82C123.001 7.88667 123.001 8.01333 122.987 8.2C122.987 8.38667 122.987 8.59333 122.987 8.82C122.987 9.03333 122.987 9.24 122.987 9.44C123.001 9.62667 123.021 9.74667 123.047 9.8C123.074 9.86667 123.141 9.91333 123.247 9.94C123.367 9.95333 123.461 9.96667 123.527 9.98C123.834 10.0067 124.074 10.0133 124.247 10C124.421 9.97333 124.661 9.96 124.967 9.96L129.547 9.98C129.694 9.99333 129.814 9.99333 129.907 9.98C130.014 9.95333 130.087 9.86667 130.127 9.72C130.127 9.65333 130.127 9.54 130.127 9.38C130.141 9.20667 130.147 9.03333 130.147 8.86C130.147 8.67333 130.147 8.50667 130.147 8.36C130.161 8.2 130.167 8.09333 130.167 8.04C130.181 7.8 130.227 7.61333 130.307 7.48C130.401 7.33333 130.574 7.23333 130.827 7.18C131.094 7.11333 131.381 7.1 131.687 7.14C132.007 7.16667 132.241 7.25333 132.387 7.4C132.601 7.62667 132.721 7.88667 132.747 8.18C132.774 8.47333 132.787 8.88 132.787 9.4C132.774 9.70667 132.767 10.1067 132.767 10.6C132.781 11.08 132.787 11.58 132.787 12.1C132.787 12.62 132.781 13.12 132.767 13.6C132.767 14.08 132.754 14.4733 132.727 14.78C132.661 15.5933 132.241 16.06 131.467 16.18C131.267 16.2067 131.041 16.22 130.787 16.22C130.547 16.22 130.327 16.22 130.127 16.22C129.701 16.2333 129.281 16.24 128.867 16.24C128.454 16.24 128.047 16.24 127.647 16.24L127.687 19.04C128.021 19.04 128.334 19.04 128.627 19.04C128.934 19.0267 129.227 19.02 129.507 19.02C129.787 19.02 130.074 19.02 130.367 19.02C130.661 19.02 130.967 19.0267 131.287 19.04C131.527 19.0533 131.761 19.0533 131.987 19.04C132.214 19.0133 132.434 19.0133 132.647 19.04ZM123.047 13.7C123.101 13.9 123.241 14.02 123.467 14.06C123.707 14.0867 123.941 14.1067 124.167 14.12C124.194 14.12 124.321 14.12 124.547 14.12C124.774 14.1067 125.047 14.1 125.367 14.1C125.687 14.1 126.027 14.1 126.387 14.1C126.761 14.0867 127.107 14.08 127.427 14.08C127.761 14.08 128.041 14.0867 128.267 14.1C128.494 14.1 128.627 14.1 128.667 14.1C128.774 14.1133 128.881 14.12 128.987 14.12C129.107 14.1067 129.221 14.1067 129.327 14.12C129.394 14.12 129.467 14.1267 129.547 14.14C129.641 14.1533 129.727 14.1533 129.807 14.14C129.887 14.1267 129.954 14.0933 130.007 14.04C130.061 13.9867 130.087 13.9067 130.087 13.8C130.087 13.7467 130.087 13.6667 130.087 13.56C130.087 13.44 130.087 13.3133 130.087 13.18C130.087 13.0333 130.081 12.8933 130.067 12.76C130.067 12.6133 130.054 12.4933 130.027 12.4C129.987 12.24 129.921 12.1533 129.827 12.14C129.747 12.1133 129.641 12.1067 129.507 12.12C129.441 12.12 129.334 12.1267 129.187 12.14C129.054 12.14 128.954 12.1333 128.887 12.12H124.327C124.207 12.12 124.074 12.12 123.927 12.12C123.781 12.1067 123.641 12.1133 123.507 12.14C123.387 12.1533 123.281 12.2 123.187 12.28C123.094 12.3467 123.041 12.46 123.027 12.62C123.027 12.66 123.027 12.7333 123.027 12.84C123.027 12.9467 123.027 13.06 123.027 13.18C123.027 13.3 123.027 13.4133 123.027 13.52C123.041 13.6133 123.047 13.6733 123.047 13.7ZM150.018 21.14C149.991 21.3 149.971 21.46 149.958 21.62C149.944 21.7667 149.911 21.92 149.858 22.08C149.831 22.1333 149.811 22.18 149.798 22.22C149.784 22.26 149.764 22.3067 149.738 22.36C149.644 22.5467 149.524 22.6933 149.378 22.8C149.071 22.9867 148.731 23.0333 148.358 22.94C148.144 22.9 147.971 22.82 147.838 22.7C147.718 22.5933 147.624 22.4533 147.558 22.28C147.504 22.12 147.458 21.96 147.418 21.8C147.391 21.64 147.378 21.5 147.378 21.38C147.378 21.26 147.378 21.1933 147.378 21.18V8.82C147.378 8.66 147.378 8.48667 147.378 8.3C147.378 8.11333 147.391 7.92667 147.418 7.74C147.444 7.55333 147.484 7.38 147.538 7.22C147.591 7.06 147.664 6.93333 147.758 6.84C147.904 6.69333 148.058 6.60667 148.218 6.58C148.378 6.54 148.551 6.52 148.738 6.52C148.964 6.52 149.171 6.58667 149.358 6.72C149.558 6.84 149.698 7.01333 149.778 7.24C149.898 7.52 149.964 7.81333 149.978 8.12C149.991 8.42667 150.004 8.73333 150.018 9.04V9.14C150.044 10.1667 150.051 11.22 150.038 12.3C150.024 13.38 150.018 14.4 150.018 15.36V20.42C150.018 20.54 150.018 20.66 150.018 20.78C150.031 20.9 150.031 21.02 150.018 21.14ZM140.578 19.18C140.564 19.02 140.558 18.86 140.558 18.7C140.558 18.54 140.558 18.38 140.558 18.22V11.86C140.558 11.6467 140.558 11.4333 140.558 11.22C140.558 11.0067 140.544 10.7867 140.518 10.56C140.504 10.4933 140.484 10.4 140.458 10.28C140.444 10.16 140.404 10.0867 140.338 10.06C140.271 10.02 140.191 10.0067 140.098 10.02C140.018 10.02 139.938 10.0133 139.858 10C139.764 9.98667 139.671 9.98667 139.578 10C139.498 10.0133 139.411 10.0133 139.318 10H138.378C138.151 10.0133 137.924 10.0133 137.698 10C137.471 9.98667 137.244 9.98667 137.018 10C136.911 10.0133 136.811 10.02 136.718 10.02C136.638 10.0067 136.544 10 136.438 10C136.291 10 136.138 9.99333 135.978 9.98C135.818 9.96667 135.671 9.91333 135.538 9.82C135.351 9.68667 135.224 9.52 135.158 9.32C135.091 9.12 135.058 8.91333 135.058 8.7C135.044 8.44667 135.098 8.19333 135.218 7.94C135.284 7.78 135.371 7.66667 135.478 7.6C135.544 7.53333 135.638 7.48 135.758 7.44C135.891 7.38667 136.004 7.34667 136.098 7.32C136.378 7.25333 136.671 7.22 136.978 7.22C137.284 7.20667 137.584 7.2 137.878 7.2H141.358C141.531 7.22667 141.711 7.25333 141.898 7.28C142.098 7.29333 142.278 7.33333 142.438 7.4C142.544 7.44 142.644 7.49333 142.738 7.56C142.844 7.62667 142.931 7.70667 142.998 7.8C143.118 7.98667 143.184 8.17333 143.198 8.36C143.224 8.54667 143.251 8.75333 143.278 8.98C143.304 9.35333 143.318 9.72667 143.318 10.1C143.318 10.46 143.318 10.8267 143.318 11.2V17.76C143.318 17.7733 143.318 17.88 143.318 18.08C143.331 18.2667 143.338 18.4933 143.338 18.76C143.338 19.0133 143.338 19.2867 143.338 19.58C143.338 19.86 143.331 20.1067 143.318 20.32C143.304 20.4533 143.284 20.5933 143.258 20.74C143.231 20.8867 143.184 21.0267 143.118 21.16C143.064 21.2933 142.984 21.4133 142.878 21.52C142.771 21.6267 142.631 21.7133 142.458 21.78C142.231 21.8733 142.004 21.92 141.778 21.92C141.604 21.92 141.431 21.8867 141.258 21.82C141.084 21.74 140.964 21.6267 140.898 21.48C140.684 21.0533 140.578 20.58 140.578 20.06V19.18Z" fill="#5E523A"/>
</svg>
