<svg width="135" height="54" viewBox="0 0 135 54" fill="none" xmlns="http://www.w3.org/2000/svg">
<g filter="url(#filter0_d_10_11)">
<rect x="4" width="127" height="46" rx="20" fill="#FFFDC4"/>
<path d="M65.46 21.06C65.6867 21.0733 65.9133 21.1067 66.14 21.16C66.38 21.2133 66.5933 21.3133 66.78 21.46C66.9667 21.6067 67.06 21.8133 67.06 22.08C67.06 22.2133 67.0333 22.3533 66.98 22.5C66.94 22.6467 66.88 22.7533 66.8 22.82C66.6933 22.9267 66.5533 23.0067 66.38 23.06C66.22 23.1 66.06 23.1333 65.9 23.16C65.74 23.1733 65.6 23.18 65.48 23.18C65.3733 23.18 65.3133 23.18 65.3 23.18L54.64 23.2C54.3333 23.2133 54.0133 23.2133 53.68 23.2C53.36 23.1867 53.0867 23.0867 52.86 22.9C52.5533 22.6733 52.4 22.4267 52.4 22.16C52.4 21.9733 52.46 21.7867 52.58 21.6C52.7133 21.4 52.8867 21.2667 53.1 21.2C53.38 21.1067 53.6667 21.0667 53.96 21.08C54.2533 21.08 54.5533 21.0733 54.86 21.06C55.18 21.0467 55.4533 21.04 55.68 21.04C55.92 21.04 56.1467 21.04 56.36 21.04C56.5867 21.04 56.82 21.0467 57.06 21.06C57.3 21.06 57.5867 21.06 57.92 21.06V19.9C57.92 19.78 57.9267 19.6933 57.94 19.64H55.84C55.7067 19.64 55.5733 19.64 55.44 19.64C55.32 19.6267 55.1933 19.6133 55.06 19.6C54.8867 19.5867 54.7 19.58 54.5 19.58C54.3 19.58 54.1267 19.5267 53.98 19.42C53.94 19.42 53.92 19.4067 53.92 19.38C53.7867 19.2733 53.6933 19.12 53.64 18.92C53.6 18.7067 53.58 18.5267 53.58 18.38C53.5667 18.14 53.5467 17.9 53.52 17.66C53.5067 17.42 53.5 17.1867 53.5 16.96C53.5 16.6133 53.5 16.2533 53.5 15.88C53.5 15.4933 53.5333 15.1333 53.6 14.8C53.64 14.5867 53.7067 14.42 53.8 14.3C53.8933 14.1667 54.04 14.06 54.24 13.98C54.4267 13.9133 54.6133 13.8667 54.8 13.84C54.9867 13.8133 55.1733 13.7867 55.36 13.76C55.5867 13.7333 55.82 13.7267 56.06 13.74C56.3 13.7533 56.54 13.76 56.78 13.76H60.58C60.9133 13.76 61.1667 13.76 61.34 13.76C61.5267 13.76 61.6933 13.76 61.84 13.76C61.9867 13.76 62.1467 13.76 62.32 13.76C62.5067 13.7467 62.7667 13.74 63.1 13.74C63.22 13.74 63.3333 13.74 63.44 13.74C63.56 13.74 63.68 13.7467 63.8 13.76C64.0533 13.7733 64.3133 13.7933 64.58 13.82C64.8467 13.8467 65.0933 13.9133 65.32 14.02C65.5867 14.1267 65.7667 14.3067 65.86 14.56C65.9533 14.8 66.0067 15.0533 66.02 15.32C66.0467 15.6267 66.0467 15.9533 66.02 16.3C66.0067 16.6467 66 16.9733 66 17.28C65.9867 17.5467 65.9733 17.8133 65.96 18.08C65.96 18.3467 65.9267 18.6133 65.86 18.88C65.82 19.0267 65.7733 19.16 65.72 19.28C65.6667 19.3867 65.56 19.4667 65.4 19.52C65.2533 19.5733 65.1 19.6067 64.94 19.62C64.78 19.6333 64.6267 19.64 64.48 19.64H60.68C60.68 19.6667 60.68 19.6867 60.68 19.7C60.6933 19.7 60.7 19.7067 60.7 19.72C60.7267 19.9067 60.74 20.12 60.74 20.36C60.7533 20.6 60.76 20.8333 60.76 21.06C61.1333 21.06 61.5333 21.06 61.96 21.06C62.3867 21.0467 62.8133 21.04 63.24 21.04C63.6667 21.04 64.0733 21.04 64.46 21.04C64.8467 21.04 65.18 21.0467 65.46 21.06ZM64.28 24.42C64.8267 24.42 65.2467 24.5067 65.54 24.68C65.8467 24.8533 66 25.0933 66 25.4V26.76C66 26.8267 66 26.96 66 27.16C66.0133 27.3467 66.02 27.5533 66.02 27.78C66.02 27.9933 66.02 28.2 66.02 28.4C66.02 28.6 66.0133 28.74 66 28.82C65.9733 29.1 65.86 29.3267 65.66 29.5C65.4733 29.6733 65.2267 29.76 64.92 29.76C64.7733 29.76 64.6333 29.74 64.5 29.7C64.3133 29.6467 64.1667 29.5667 64.06 29.46C63.9667 29.3533 63.8933 29.2333 63.84 29.1C63.8 28.9667 63.7667 28.8267 63.74 28.68C63.7267 28.52 63.72 28.3667 63.72 28.22C63.72 28.1667 63.7133 28.0733 63.7 27.94C63.7 27.7933 63.6933 27.6467 63.68 27.5C63.68 27.3533 63.6733 27.2133 63.66 27.08C63.66 26.9467 63.6533 26.8533 63.64 26.8C63.6 26.7867 63.4867 26.7733 63.3 26.76C63.1267 26.7467 62.7933 26.74 62.3 26.74C62.0733 26.74 61.8733 26.7467 61.7 26.76C61.5267 26.76 61.3667 26.76 61.22 26.76H60.78H54.1C54.0867 26.76 54.0333 26.7467 53.94 26.72C53.86 26.6933 53.7667 26.6533 53.66 26.6C53.5533 26.5467 53.4533 26.4733 53.36 26.38C53.2667 26.2867 53.2133 26.1667 53.2 26.02C53.12 25.5267 53.2 25.1267 53.44 24.82C53.6 24.6333 53.7733 24.5267 53.96 24.5C54.1467 24.46 54.2467 24.44 54.26 24.44L64.28 24.42ZM55.88 17.08C55.88 17.1467 55.88 17.2133 55.88 17.28C55.8933 17.3333 55.9133 17.3733 55.94 17.4C55.9667 17.4267 56.0133 17.4467 56.08 17.46C56.1467 17.46 56.2133 17.46 56.28 17.46C56.3467 17.46 56.4267 17.4533 56.52 17.44H61.78C61.9667 17.4533 62.1467 17.4667 62.32 17.48C62.4667 17.4933 62.62 17.5 62.78 17.5C62.9533 17.5 63.1 17.4867 63.22 17.46C63.3667 17.4467 63.4467 17.4133 63.46 17.36C63.4867 17.2933 63.5133 17.2 63.54 17.08C63.5533 16.9733 63.56 16.8267 63.56 16.64C63.56 16.4533 63.52 16.3067 63.44 16.2C63.3467 16.0933 63.2133 16.04 63.04 16.04C62.8667 16.0267 62.72 16.0267 62.6 16.04H60.78C60.74 16.04 60.58 16.04 60.3 16.04C60.02 16.04 59.7133 16.04 59.38 16.04C59.06 16.04 58.76 16.04 58.48 16.04C58.2 16.04 58.04 16.04 58 16.04C57.72 16.0133 57.44 16.0067 57.16 16.02C56.88 16.02 56.5933 16.0267 56.3 16.04C56.18 16.04 56.0933 16.0467 56.04 16.06C55.9867 16.06 55.9467 16.12 55.92 16.24C55.8933 16.3333 55.88 16.4467 55.88 16.58C55.88 16.7133 55.88 16.82 55.88 16.9V17.08ZM70.6088 22.9C70.5154 22.9 70.4221 22.9 70.3288 22.9C70.2354 22.8867 70.1354 22.8667 70.0288 22.84C69.8421 22.84 69.6421 22.8133 69.4288 22.76C69.2154 22.6933 69.0554 22.6 68.9488 22.48C68.8288 22.36 68.7488 22.2133 68.7088 22.04C68.6688 21.8533 68.6488 21.6867 68.6488 21.54C68.6488 21.3133 68.7621 21.12 68.9888 20.96C69.1221 20.8667 69.2821 20.8067 69.4688 20.78C69.6554 20.74 69.8421 20.72 70.0288 20.72C70.0421 20.7067 70.0888 20.6933 70.1688 20.68C70.2621 20.6667 70.3554 20.66 70.4488 20.66C70.5554 20.6467 70.6488 20.64 70.7288 20.64C70.8088 20.64 70.8488 20.6467 70.8488 20.66V19.88C70.8488 19.7333 70.8488 19.5867 70.8488 19.44C70.8488 19.2933 70.8421 19.1067 70.8288 18.88C70.8288 18.6533 70.8221 18.36 70.8088 18C70.8088 17.64 70.8021 17.1733 70.7888 16.6H70.1888C70.0821 16.6 69.9821 16.5933 69.8888 16.58C69.7954 16.5533 69.7021 16.54 69.6088 16.54C69.5154 16.5133 69.4221 16.4867 69.3288 16.46C69.2488 16.42 69.1554 16.3667 69.0488 16.3C68.8488 16.18 68.7288 16.0267 68.6888 15.84C68.6621 15.64 68.6488 15.4533 68.6488 15.28C68.6488 14.8 68.8688 14.5 69.3088 14.38C69.4554 14.3267 69.6154 14.2867 69.7888 14.26C69.9621 14.22 70.1354 14.1867 70.3088 14.16H80.1488C80.2954 14.16 80.4421 14.1733 80.5888 14.2C80.7354 14.2267 80.8821 14.2533 81.0288 14.28C81.1888 14.3067 81.3354 14.3467 81.4688 14.4C81.6021 14.4533 81.7154 14.5267 81.8088 14.62C81.9288 14.74 82.0088 14.8733 82.0488 15.02C82.0888 15.1667 82.1088 15.3267 82.1088 15.5C82.1088 15.5667 82.0954 15.64 82.0688 15.72C82.0421 15.8 82.0154 15.8733 81.9888 15.94C81.8954 16.18 81.7221 16.3533 81.4688 16.46C81.2288 16.5533 80.9821 16.6 80.7288 16.6H79.8488C79.8488 16.68 79.8488 16.7733 79.8488 16.88C79.8621 16.9867 79.8821 17.0867 79.9088 17.18V20.6L80.5088 20.64C80.6554 20.6533 80.7954 20.66 80.9288 20.66C81.0621 20.66 81.1421 20.66 81.1688 20.66C81.3688 20.7267 81.5421 20.8067 81.6888 20.9C81.8354 20.9933 81.9554 21.1267 82.0488 21.3C82.1154 21.4867 82.1288 21.6933 82.0888 21.92C82.0621 22.1467 81.9888 22.3333 81.8688 22.48C81.7488 22.6667 81.6154 22.7867 81.4688 22.84C81.3754 22.8667 81.2754 22.8867 81.1688 22.9C81.0754 22.9 80.9688 22.9 80.8488 22.9H70.6088ZM72.8288 23.3C72.8954 23.3 72.9421 23.3133 72.9688 23.34C73.0088 23.3533 73.0421 23.36 73.0688 23.36C73.2554 23.4267 73.4088 23.5333 73.5288 23.68C73.5954 23.7733 73.6488 23.8667 73.6888 23.96C73.7421 24.0533 73.7688 24.16 73.7688 24.28V25.04C73.7954 25.1867 73.8088 25.3133 73.8088 25.42C73.8221 25.5133 73.8288 25.6533 73.8288 25.84V25.96C73.9888 25.9733 74.1821 25.9867 74.4088 26C74.6354 26 74.8621 26 75.0888 26C75.3288 26 75.5554 26 75.7688 26C75.9821 25.9867 76.1621 25.98 76.3088 25.98H76.4888V24.56C76.4888 24.2667 76.5954 23.9867 76.8088 23.72C77.0221 23.44 77.2954 23.3 77.6288 23.3C77.7488 23.3 77.8554 23.3067 77.9488 23.32C78.0421 23.32 78.1354 23.3333 78.2288 23.36C78.3354 23.3867 78.4221 23.4333 78.4887 23.5C78.5688 23.5533 78.6554 23.6133 78.7488 23.68C78.8154 23.7733 78.8621 23.8667 78.8888 23.96C78.9288 24.0533 78.9621 24.16 78.9888 24.28V25.98H79.0488C79.4754 25.98 79.9621 25.98 80.5088 25.98C81.0688 25.98 81.5621 26.0333 81.9888 26.14C82.0821 26.1667 82.1821 26.2133 82.2888 26.28C82.3954 26.3333 82.4954 26.4 82.5888 26.48C82.7621 26.6667 82.8488 26.92 82.8488 27.24C82.8488 27.56 82.7621 27.8267 82.5888 28.04C82.5221 28.0667 82.4621 28.1067 82.4088 28.16C82.3554 28.2133 82.2954 28.2533 82.2288 28.28C82.0421 28.3467 81.8621 28.3867 81.6888 28.4C81.5154 28.4 81.3421 28.4 81.1688 28.4H71.6088C71.1954 28.4 70.7821 28.4067 70.3688 28.42C69.9554 28.4333 69.5354 28.4267 69.1088 28.4C68.7754 28.4 68.5021 28.32 68.2888 28.16C68.0088 27.88 67.8688 27.56 67.8688 27.2C67.8688 27.04 67.9288 26.84 68.0488 26.6C68.1554 26.4 68.3154 26.2667 68.5288 26.2C68.7688 26.08 69.0488 26.02 69.3688 26.02C69.4354 26.02 69.5688 26.02 69.7688 26.02C69.9821 26.02 70.2021 26.0133 70.4288 26C70.6954 25.9867 70.9954 25.9733 71.3288 25.96V24.56C71.3288 24.4933 71.3288 24.44 71.3288 24.4C71.3421 24.3467 71.3621 24.2867 71.3888 24.22C71.3888 24.1533 71.4021 24.0933 71.4288 24.04C71.4554 23.9867 71.4821 23.9267 71.5088 23.86C71.5754 23.7267 71.6954 23.62 71.8688 23.54C71.9354 23.4733 72.0021 23.4267 72.0688 23.4C72.1488 23.36 72.2354 23.3267 72.3288 23.3H72.8288ZM77.0288 20.6C77.1621 20.6 77.2621 20.58 77.3288 20.54C77.3954 20.4867 77.4354 20.4267 77.4488 20.36C77.4754 20.2933 77.4888 20.2267 77.4888 20.16C77.4888 20.08 77.4888 20.0133 77.4888 19.96L77.4288 17.02C77.4288 16.9133 77.4021 16.82 77.3488 16.74C77.2954 16.6467 77.2021 16.6 77.0688 16.6H73.6288C73.3621 16.6 73.2288 16.6733 73.2288 16.82C73.2288 16.9667 73.2288 17.1467 73.2288 17.36C73.2288 17.5067 73.2221 17.66 73.2088 17.82C73.2088 17.9667 73.2088 18.14 73.2088 18.34C73.2088 18.54 73.2088 18.78 73.2088 19.06C73.2221 19.3267 73.2354 19.6467 73.2488 20.02C73.2488 20.06 73.2488 20.1133 73.2488 20.18C73.2488 20.2467 73.2621 20.3133 73.2888 20.38C73.3154 20.4333 73.3554 20.4867 73.4088 20.54C73.4754 20.58 73.5621 20.6 73.6688 20.6H77.0288Z" fill="black"/>
</g>
<defs>
<filter id="filter0_d_10_11" x="0" y="0" width="135" height="54" filterUnits="userSpaceOnUse" color-interpolation-filters="sRGB">
<feFlood flood-opacity="0" result="BackgroundImageFix"/>
<feColorMatrix in="SourceAlpha" type="matrix" values="0 0 0 0 0 0 0 0 0 0 0 0 0 0 0 0 0 0 127 0" result="hardAlpha"/>
<feOffset dy="4"/>
<feGaussianBlur stdDeviation="2"/>
<feComposite in2="hardAlpha" operator="out"/>
<feColorMatrix type="matrix" values="0 0 0 0 0 0 0 0 0 0 0 0 0 0 0 0 0 0 0.25 0"/>
<feBlend mode="normal" in2="BackgroundImageFix" result="effect1_dropShadow_10_11"/>
<feBlend mode="normal" in="SourceGraphic" in2="effect1_dropShadow_10_11" result="shape"/>
</filter>
</defs>
</svg>
