<svg width="35" height="35" viewBox="0 0 35 35" fill="none" xmlns="http://www.w3.org/2000/svg">
<path d="M13.4615 33.7501V24.9881C13.4615 24.3757 14.1346 23.7507 14.8077 23.7507H20.1923C20.8654 23.7507 21.5385 24.3757 21.5385 25.0006V33.7501C21.5385 34.0816 21.6803 34.3995 21.9327 34.6339C22.1852 34.8683 22.5276 35 22.8846 35H33.6538C34.0109 35 34.3533 34.8683 34.6057 34.6339C34.8582 34.3995 35 34.0816 35 33.7501V16.2512C35.0003 16.0869 34.9658 15.9242 34.8983 15.7724C34.8309 15.6206 34.7318 15.4825 34.6069 15.3663L30.9615 11.984V3.752C30.9615 3.4205 30.8197 3.10257 30.5673 2.86817C30.3148 2.63376 29.9724 2.50207 29.6154 2.50207H26.9231C26.5661 2.50207 26.2237 2.63376 25.9712 2.86817C25.7187 3.10257 25.5769 3.4205 25.5769 3.752V6.98429L18.4531 0.367211C18.328 0.25081 18.1795 0.158459 18.0159 0.095447C17.8524 0.0324349 17.6771 0 17.5 0C17.3229 0 17.1476 0.0324349 16.9841 0.095447C16.8205 0.158459 16.672 0.25081 16.5469 0.367211L0.393079 15.3663C0.268151 15.4825 0.169133 15.6206 0.101686 15.7724C0.0342393 15.9242 -0.000313787 16.0869 2.1471e-06 16.2512V33.7501C2.1471e-06 34.0816 0.141829 34.3995 0.394281 34.6339C0.646734 34.8683 0.989134 35 1.34616 35H12.1154C12.4724 35 12.8148 34.8683 13.0673 34.6339C13.3197 34.3995 13.4615 34.0816 13.4615 33.7501Z" fill="#FFE400"/>
</svg>
