<svg width="35" height="35" viewBox="0 0 35 35" fill="none" xmlns="http://www.w3.org/2000/svg">
<path d="M18.4531 0.367211C18.328 0.25081 18.1795 0.158459 18.0159 0.095447C17.8524 0.0324349 17.6771 0 17.5 0C17.3229 0 17.1476 0.0324349 16.9841 0.095447C16.8205 0.158459 16.672 0.25081 16.5469 0.367211L0.393079 15.3663C0.268151 15.4825 0.169133 15.6206 0.101686 15.7724C0.0342393 15.9242 -0.000313787 16.0869 2.1471e-06 16.2512L2.1471e-06 33.7501C2.1471e-06 34.0816 0.141829 34.3995 0.394281 34.6339C0.646734 34.8683 0.989133 35 1.34616 35H13.4615C13.8186 35 14.161 34.8683 14.4134 34.6339C14.6659 34.3995 14.8077 34.0816 14.8077 33.7501V23.7507H20.1923V33.7501C20.1923 34.0816 20.3341 34.3995 20.5866 34.6339C20.839 34.8683 21.1814 35 21.5385 35H33.6538C34.0109 35 34.3533 34.8683 34.6057 34.6339C34.8582 34.3995 35 34.0816 35 33.7501V16.2512C35.0003 16.0869 34.9658 15.9242 34.8983 15.7724C34.8309 15.6206 34.7318 15.4825 34.6069 15.3663L30.9615 11.984V3.752C30.9615 3.4205 30.8197 3.10257 30.5673 2.86817C30.3148 2.63376 29.9724 2.50207 29.6154 2.50207H26.9231C26.5661 2.50207 26.2237 2.63376 25.9712 2.86817C25.7187 3.10257 25.5769 3.4205 25.5769 3.752V6.98429L18.4531 0.367211ZM2.69231 32.5002V16.7687L17.5 3.01954L32.3077 16.7687V32.5002H22.8846V22.5008C22.8846 22.1693 22.7428 21.8514 22.4903 21.617C22.2379 21.3826 21.8955 21.2509 21.5385 21.2509H13.4615C13.1045 21.2509 12.7621 21.3826 12.5097 21.617C12.2572 21.8514 12.1154 22.1693 12.1154 22.5008V32.5002H2.69231Z" fill="#A8A8A8"/>
</svg>
