<svg width="37" height="32" viewBox="0 0 37 32" fill="none" xmlns="http://www.w3.org/2000/svg">
<path d="M29.2369 32C32.3264 32 34.6875 29.36 34.6875 26.2857V9.14286H2.3125V26.2857C2.3125 29.36 4.67356 32 7.76306 32H29.2369ZM12.7188 13.7143H24.2812C24.5879 13.7143 24.882 13.8347 25.0988 14.049C25.3157 14.2633 25.4375 14.554 25.4375 14.8571C25.4375 15.1602 25.3157 15.4509 25.0988 15.6653C24.882 15.8796 24.5879 16 24.2812 16H12.7188C12.4121 16 12.118 15.8796 11.9012 15.6653C11.6843 15.4509 11.5625 15.1602 11.5625 14.8571C11.5625 14.554 11.6843 14.2633 11.9012 14.049C12.118 13.8347 12.4121 13.7143 12.7188 13.7143ZM1.85 0C1.35935 0 0.888795 0.192652 0.541852 0.535576C0.19491 0.8785 0 1.3436 0 1.82857L0 4.57143C0 5.0564 0.19491 5.5215 0.541852 5.86442C0.888795 6.20735 1.35935 6.4 1.85 6.4H35.15C35.6407 6.4 36.1112 6.20735 36.4581 5.86442C36.8051 5.5215 37 5.0564 37 4.57143V1.82857C37 1.3436 36.8051 0.8785 36.4581 0.535576C36.1112 0.192652 35.6407 0 35.15 0H1.85Z" fill="#FFE400"/>
</svg>
