<svg width="25" height="20" viewBox="0 0 25 20" fill="none" xmlns="http://www.w3.org/2000/svg">
<path d="M0 1.42857C0 1.04969 0.16462 0.686328 0.457646 0.418419C0.750671 0.15051 1.1481 0 1.5625 0H23.4375C23.8519 0 24.2493 0.15051 24.5424 0.418419C24.8354 0.686328 25 1.04969 25 1.42857V4.28571C25 4.6646 24.8354 5.02796 24.5424 5.29587C24.2493 5.56378 23.8519 5.71429 23.4375 5.71429V16.4286C23.4375 17.3758 23.0259 18.2842 22.2934 18.954C21.5608 19.6237 20.5673 20 19.5312 20H5.46875C4.43275 20 3.43918 19.6237 2.70661 18.954C1.97405 18.2842 1.5625 17.3758 1.5625 16.4286V5.71429C1.1481 5.71429 0.750671 5.56378 0.457646 5.29587C0.16462 5.02796 0 4.6646 0 4.28571V1.42857ZM3.125 5.71429V16.4286C3.125 16.9969 3.37193 17.5419 3.81147 17.9438C4.25101 18.3457 4.84715 18.5714 5.46875 18.5714H19.5312C20.1529 18.5714 20.749 18.3457 21.1885 17.9438C21.6281 17.5419 21.875 16.9969 21.875 16.4286V5.71429H3.125ZM23.4375 1.42857H1.5625V4.28571H23.4375V1.42857ZM7.8125 9.28571C7.8125 9.09627 7.89481 8.91459 8.04132 8.78064C8.18784 8.64668 8.38655 8.57143 8.59375 8.57143H16.4062C16.6135 8.57143 16.8122 8.64668 16.9587 8.78064C17.1052 8.91459 17.1875 9.09627 17.1875 9.28571C17.1875 9.47515 17.1052 9.65684 16.9587 9.79079C16.8122 9.92475 16.6135 10 16.4062 10H8.59375C8.38655 10 8.18784 9.92475 8.04132 9.79079C7.89481 9.65684 7.8125 9.47515 7.8125 9.28571Z" fill="black"/>
</svg>
