<svg width="19" height="19" viewBox="0 0 19 19" fill="none" xmlns="http://www.w3.org/2000/svg">
<g clip-path="url(#clip0_105_31)">
<path d="M18.3774 1.425C18.4942 1.54216 18.5598 1.70083 18.5598 1.86625C18.5598 2.03167 18.4942 2.19035 18.3774 2.3075L17.0736 3.6125L14.5736 1.1125L15.8774 -0.192497C15.9946 -0.309666 16.1535 -0.375488 16.3193 -0.375488C16.485 -0.375488 16.6439 -0.309666 16.7611 -0.192497L18.3774 1.42375V1.425ZM16.1899 4.495L13.6899 1.995L5.17364 10.5125C5.10484 10.5813 5.05305 10.6652 5.02239 10.7575L4.01614 13.775C3.99789 13.83 3.9953 13.889 4.00866 13.9454C4.02201 14.0018 4.05079 14.0534 4.09177 14.0944C4.13276 14.1354 4.18433 14.1641 4.24073 14.1775C4.29713 14.1908 4.35613 14.1883 4.41114 14.17L7.42864 13.1638C7.52084 13.1335 7.60473 13.0821 7.67364 13.0138L16.1899 4.495Z" fill="#5E523A"/>
<path fill-rule="evenodd" clip-rule="evenodd" d="M0.25 15.875C0.25 16.3723 0.447544 16.8492 0.799175 17.2008C1.15081 17.5525 1.62772 17.75 2.125 17.75H15.875C16.3723 17.75 16.8492 17.5525 17.2008 17.2008C17.5525 16.8492 17.75 16.3723 17.75 15.875V8.375C17.75 8.20924 17.6842 8.05027 17.5669 7.93306C17.4497 7.81585 17.2908 7.75 17.125 7.75C16.9592 7.75 16.8003 7.81585 16.6831 7.93306C16.5658 8.05027 16.5 8.20924 16.5 8.375V15.875C16.5 16.0408 16.4342 16.1997 16.3169 16.3169C16.1997 16.4342 16.0408 16.5 15.875 16.5H2.125C1.95924 16.5 1.80027 16.4342 1.68306 16.3169C1.56585 16.1997 1.5 16.0408 1.5 15.875V2.125C1.5 1.95924 1.56585 1.80027 1.68306 1.68306C1.80027 1.56585 1.95924 1.5 2.125 1.5H10.25C10.4158 1.5 10.5747 1.43415 10.6919 1.31694C10.8092 1.19973 10.875 1.04076 10.875 0.875C10.875 0.70924 10.8092 0.550268 10.6919 0.433058C10.5747 0.315848 10.4158 0.25 10.25 0.25H2.125C1.62772 0.25 1.15081 0.447544 0.799175 0.799175C0.447544 1.15081 0.25 1.62772 0.25 2.125V15.875Z" fill="#5E523A"/>
</g>
<defs>
<clipPath id="clip0_105_31">
<rect width="19" height="19" fill="white"/>
</clipPath>
</defs>
</svg>
