<svg width="135" height="54" viewBox="0 0 135 54" fill="none" xmlns="http://www.w3.org/2000/svg">
<g filter="url(#filter0_d_10_8)">
<rect x="4" width="127" height="46" rx="20" fill="#C4FF90"/>
<path d="M60.16 26.46C60.2 26.5267 60.2333 26.6 60.26 26.68C60.3 26.7467 60.3333 26.8267 60.36 26.92C60.4 27.0667 60.4267 27.2267 60.44 27.4C60.4533 27.5733 60.4133 27.7533 60.32 27.94C60.1067 28.3533 59.8133 28.5733 59.44 28.6H59.42C59.18 28.6 58.9667 28.52 58.78 28.36C58.6067 28.2 58.42 28.0067 58.22 27.78C58.02 27.5667 57.84 27.3533 57.68 27.14C57.52 26.9267 57.3733 26.7333 57.24 26.56C57.2267 26.5333 57.2067 26.5067 57.18 26.48C57.1667 26.44 57.1467 26.3933 57.12 26.34C56.7867 25.8333 56.54 25.48 56.38 25.28C56.22 25.08 56.1267 24.9733 56.1 24.96C56.0733 24.9867 56.0067 25.06 55.9 25.18C55.8067 25.2867 55.7467 25.3533 55.72 25.38C55.6933 25.42 55.6667 25.46 55.64 25.5C55.6133 25.5267 55.5867 25.5533 55.56 25.58C55.44 25.7133 55.34 25.8533 55.26 26C55.1933 26.1333 55.1067 26.2733 55 26.42C54.8933 26.5667 54.78 26.7067 54.66 26.84C54.5533 26.9733 54.44 27.1067 54.32 27.24C54.2667 27.2933 54.2133 27.36 54.16 27.44C53.96 27.6667 53.7467 27.8867 53.52 28.1C53.3067 28.3133 53.0533 28.4733 52.76 28.58C52.64 28.6333 52.5067 28.66 52.36 28.66C52.0533 28.66 51.78 28.54 51.54 28.3C51.3133 28.0733 51.2 27.7933 51.2 27.46C51.2133 27.22 51.2733 26.9933 51.38 26.78C51.5 26.5667 51.6133 26.3667 51.72 26.18L51.76 26.1C51.8 26.0333 51.84 25.9733 51.88 25.92C51.92 25.8667 51.96 25.8133 52 25.76C52.0267 25.72 52.0467 25.6867 52.06 25.66C52.0867 25.62 52.1133 25.5867 52.14 25.56C52.3 25.32 52.44 25.1267 52.56 24.98C52.5867 24.9533 52.6 24.9333 52.6 24.92C52.6133 24.8933 52.6333 24.8667 52.66 24.84C52.6867 24.7867 52.7133 24.7533 52.74 24.74L52.78 24.68C52.8333 24.6133 52.88 24.5533 52.92 24.5C52.96 24.4333 53 24.3667 53.04 24.3C53.1333 24.1533 53.2133 24.02 53.28 23.9C53.36 23.7667 53.4333 23.64 53.5 23.52C53.58 23.3733 53.66 23.2333 53.74 23.1C53.82 22.9533 53.9133 22.8133 54.02 22.68C54.0867 22.5733 54.1533 22.4667 54.22 22.36C54.3 22.2533 54.3733 22.1467 54.44 22.04L54.52 21.92C54.6133 21.7733 54.68 21.6467 54.72 21.54C54.7733 21.42 54.8067 21.2867 54.82 21.14C54.8467 20.9267 54.86 20.72 54.86 20.52C54.86 20.3067 54.86 20.08 54.86 19.84V16.54C54.86 16.4067 54.86 16.28 54.86 16.16C54.86 16.04 54.8667 15.9133 54.88 15.78C54.88 15.6333 54.8933 15.4867 54.92 15.34C54.9467 15.1933 54.98 15.06 55.02 14.94C55.0867 14.7667 55.1733 14.5933 55.28 14.42C55.3467 14.3133 55.44 14.2333 55.56 14.18C55.6933 14.1267 55.8333 14.0867 55.98 14.06L56.02 14.04C56.1267 14.0133 56.22 14.0067 56.3 14.02C56.3933 14.02 56.4933 14.04 56.6 14.08C56.7333 14.1333 56.8333 14.1933 56.9 14.26C56.9667 14.3133 57.02 14.3867 57.06 14.48C57.1 14.5733 57.14 14.6733 57.18 14.78C57.3 15.0333 57.38 15.36 57.42 15.76C57.4733 16.32 57.5067 16.9133 57.52 17.54C57.5333 18.1533 57.54 18.74 57.54 19.3C57.5533 19.6467 57.56 19.9933 57.56 20.34C57.56 20.6733 57.5733 21.0067 57.6 21.34C57.6133 21.6333 57.6867 21.9067 57.82 22.16C57.9667 22.4133 58.1133 22.6667 58.26 22.92C58.4067 23.2133 58.56 23.5067 58.72 23.8C58.88 24.08 59.0467 24.36 59.22 24.64C59.2867 24.7733 59.3533 24.9067 59.42 25.04C59.5 25.16 59.58 25.2867 59.66 25.42C59.6867 25.4867 59.7133 25.5467 59.74 25.6C59.78 25.6533 59.8133 25.7067 59.84 25.76C59.8667 25.8267 59.9 25.9 59.94 25.98C59.98 26.0467 60.0133 26.1133 60.04 26.18L60.1 26.34L60.16 26.46ZM65.2 28.14C65.1733 28.3 65.1533 28.46 65.14 28.62C65.1267 28.7667 65.0933 28.92 65.04 29.08C65.0133 29.1333 64.9933 29.18 64.98 29.22C64.9667 29.26 64.9467 29.3067 64.92 29.36C64.8267 29.5467 64.7067 29.6933 64.56 29.8C64.2533 29.9867 63.9133 30.0333 63.54 29.94C63.3267 29.9 63.1533 29.82 63.02 29.7C62.9 29.5933 62.8067 29.4533 62.74 29.28C62.6867 29.12 62.64 28.96 62.6 28.8C62.5733 28.64 62.56 28.5 62.56 28.38C62.56 28.26 62.56 28.1933 62.56 28.18V15.82C62.56 15.66 62.56 15.4867 62.56 15.3C62.56 15.1133 62.5733 14.9267 62.6 14.74C62.6267 14.5533 62.6667 14.38 62.72 14.22C62.7733 14.06 62.8467 13.9333 62.94 13.84C63.0867 13.6933 63.24 13.6067 63.4 13.58C63.56 13.54 63.7333 13.52 63.92 13.52C64.1467 13.52 64.3533 13.5867 64.54 13.72C64.74 13.84 64.88 14.0133 64.96 14.24C65.08 14.52 65.1467 14.8133 65.16 15.12C65.1733 15.4267 65.1867 15.7333 65.2 16.04V16.14C65.2267 17.1667 65.2333 18.22 65.22 19.3C65.2067 20.38 65.2 21.4 65.2 22.36V27.42C65.2 27.54 65.2 27.66 65.2 27.78C65.2133 27.9 65.2133 28.02 65.2 28.14ZM72.4791 16.06C72.4791 16.06 72.4724 16.14 72.4591 16.3C72.4591 16.46 72.4591 16.64 72.4591 16.84C72.4591 17.04 72.4591 17.2267 72.4591 17.4C72.4724 17.5733 72.4791 17.6733 72.4791 17.7C72.5457 17.7667 72.6657 17.88 72.8391 18.04C73.0124 18.1867 73.1591 18.3133 73.2791 18.42C73.4124 18.5267 73.5457 18.6467 73.6791 18.78C73.8257 18.9 73.9724 19.0333 74.1191 19.18C74.2124 19.2733 74.2991 19.3667 74.3791 19.46C74.4591 19.54 74.5324 19.6133 74.5991 19.68C74.8524 19.9333 75.1057 20.2067 75.3591 20.5C75.6124 20.7933 75.7857 21.0933 75.8791 21.4C75.9191 21.52 75.9257 21.6533 75.8991 21.8C75.8724 21.9467 75.7857 22.0733 75.6391 22.18C75.4124 22.3133 75.1724 22.38 74.9191 22.38C74.6257 22.38 74.3457 22.32 74.0791 22.2C73.8124 22.08 73.5991 21.96 73.4391 21.84C73.1857 21.6533 72.9524 21.46 72.7391 21.26C72.5257 21.0467 72.3124 20.8333 72.0991 20.62C71.9524 20.4733 71.7857 20.3067 71.5991 20.12C71.4124 19.92 71.2257 19.7467 71.0391 19.6L70.4991 20.14C70.4057 20.2333 70.3124 20.3267 70.2191 20.42C70.1257 20.5 70.0391 20.5867 69.9591 20.68C69.7857 20.8667 69.6057 21.06 69.4191 21.26C69.2324 21.4467 69.0191 21.6267 68.7791 21.8C68.2324 22.2 67.7191 22.4 67.2391 22.4C67.1724 22.4 67.1124 22.4 67.0591 22.4C67.0191 22.4 66.9657 22.3867 66.8991 22.36C66.6057 22.2933 66.4124 22.1733 66.3191 22C66.2257 21.8533 66.1924 21.6867 66.2191 21.5C66.2591 21.3133 66.3191 21.1467 66.3991 21C66.5057 20.8533 66.6257 20.7133 66.7591 20.58C66.8924 20.4333 67.0257 20.2867 67.1591 20.14C67.2791 20.0067 67.4657 19.82 67.7191 19.58C67.9857 19.3267 68.2524 19.0733 68.5191 18.82C68.7857 18.5533 69.0324 18.3133 69.2591 18.1C69.4857 17.8867 69.6257 17.7533 69.6791 17.7V16.06H68.3991C68.2391 16.06 68.0524 16.0667 67.8391 16.08C67.6257 16.08 67.4124 16.0667 67.1991 16.04C66.9991 16.0133 66.8124 15.96 66.6391 15.88C66.4657 15.7867 66.3391 15.64 66.2591 15.44C66.1924 15.2933 66.1457 15.1267 66.1191 14.94C66.1057 14.7533 66.1191 14.58 66.1591 14.42C66.2124 14.2333 66.3324 14.1067 66.5191 14.04C66.7057 13.96 66.8857 13.9067 67.0591 13.88C67.0857 13.88 67.1924 13.88 67.3791 13.88C67.5791 13.88 67.7924 13.88 68.0191 13.88C68.2457 13.88 68.4591 13.88 68.6591 13.88C68.8591 13.88 68.9791 13.8733 69.0191 13.86H73.6991C74.2324 13.86 74.6791 13.8933 75.0391 13.96C75.4124 14.0267 75.7124 14.1933 75.9391 14.46C76.0057 14.54 76.0457 14.6467 76.0591 14.78C76.0857 14.9133 76.0857 15.0533 76.0591 15.2C76.0457 15.3333 76.0057 15.46 75.9391 15.58C75.8857 15.7 75.8057 15.7867 75.6991 15.84C75.5924 15.88 75.4657 15.9267 75.3191 15.98C75.1724 16.02 75.0457 16.0467 74.9391 16.06C74.7524 16.0733 74.5591 16.08 74.3591 16.08C74.1724 16.0667 73.9857 16.06 73.7991 16.06H72.4791ZM78.9191 24.1C79.4791 24.1 79.8857 24.22 80.1391 24.46C80.4057 24.7 80.5391 24.9733 80.5391 25.28V26.42C80.5391 26.46 80.5391 26.56 80.5391 26.72C80.5391 26.8667 80.5391 27.0267 80.5391 27.2C80.5391 27.3733 80.5391 27.5333 80.5391 27.68C80.5524 27.8267 80.5591 27.92 80.5591 27.96C80.5591 28.1067 80.5591 28.2533 80.5591 28.4C80.5591 28.5467 80.5524 28.6933 80.5391 28.84C80.5124 29.12 80.3991 29.3467 80.1991 29.52C80.0124 29.6933 79.7657 29.78 79.4591 29.78C79.3924 29.78 79.2724 29.7733 79.0991 29.76C78.9391 29.76 78.8257 29.7467 78.7591 29.72C78.5724 29.6667 78.4257 29.5867 78.3191 29.48C78.2257 29.3733 78.1524 29.2533 78.0991 29.12C78.0457 28.9867 78.0124 28.8467 77.9991 28.7C77.9857 28.54 77.9724 28.3867 77.9591 28.24C77.9591 28.1867 77.9591 28.0733 77.9591 27.9C77.9591 27.7267 77.9524 27.5467 77.9391 27.36C77.9391 27.16 77.9324 26.98 77.9191 26.82C77.9057 26.6467 77.8924 26.5333 77.8791 26.48C77.8391 26.4667 77.7324 26.4533 77.5591 26.44C77.3857 26.4267 77.0457 26.42 76.5391 26.42C76.1124 26.42 75.8457 26.4267 75.7391 26.44C75.6457 26.44 75.5924 26.44 75.5791 26.44H68.3591C68.3457 26.44 68.2924 26.4267 68.1991 26.4C68.1191 26.3733 68.0257 26.3333 67.9191 26.28C67.8124 26.2133 67.7124 26.1333 67.6191 26.04C67.5257 25.9467 67.4724 25.8333 67.4591 25.7C67.3791 25.18 67.4591 24.78 67.6991 24.5C67.8591 24.3133 68.0324 24.2067 68.2191 24.18C68.4057 24.14 68.5057 24.1133 68.5191 24.1H78.9191ZM80.5191 19.6V21.42C80.5057 21.5667 80.4857 21.72 80.4591 21.88C80.4324 22.0267 80.3791 22.1733 80.2991 22.32C80.2191 22.48 80.1057 22.6133 79.9591 22.72C79.8524 22.7867 79.7257 22.84 79.5791 22.88C79.4457 22.9067 79.3257 22.92 79.2191 22.92C79.1124 22.92 78.9991 22.9133 78.8791 22.9C78.7591 22.8733 78.6591 22.8333 78.5791 22.78C78.4457 22.7 78.3391 22.6 78.2591 22.48C78.1791 22.36 78.1124 22.2467 78.0591 22.14C78.0191 22.02 77.9924 21.92 77.9791 21.84C77.9657 21.7467 77.9591 21.7 77.9591 21.7V15.1C77.9457 15.0467 77.9524 14.9 77.9791 14.66C78.0057 14.42 78.0591 14.22 78.1391 14.06C78.2057 13.9267 78.3191 13.82 78.4791 13.74C78.6524 13.66 78.8324 13.6067 79.0191 13.58C79.2457 13.5533 79.4724 13.5667 79.6991 13.62C79.9257 13.6733 80.0924 13.76 80.1991 13.88C80.2791 13.9867 80.3324 14.0933 80.3591 14.2C80.3991 14.2933 80.4324 14.3933 80.4591 14.5C80.4991 14.6333 80.5191 14.7733 80.5191 14.92C80.5324 15.0667 80.5324 15.2133 80.5191 15.36V16.74V16.92C80.5191 16.9867 80.5124 17.06 80.4991 17.14C80.4991 17.2067 80.5057 17.2867 80.5191 17.38C80.5724 17.38 80.6724 17.3867 80.8191 17.4C80.9657 17.4 81.1191 17.4067 81.2791 17.42C81.4391 17.42 81.5924 17.4267 81.7391 17.44C81.8857 17.4533 81.9924 17.4667 82.0591 17.48C82.3257 17.5333 82.5124 17.6133 82.6191 17.72C82.7257 17.8133 82.7924 17.9333 82.8191 18.08C82.8591 18.2267 82.8791 18.4 82.8791 18.6C82.8791 18.7867 82.8391 18.9467 82.7591 19.08C82.5991 19.3467 82.3591 19.5 82.0391 19.54C81.7191 19.5667 81.3657 19.5867 80.9791 19.6H80.5191Z" fill="black"/>
</g>
<defs>
<filter id="filter0_d_10_8" x="0" y="0" width="135" height="54" filterUnits="userSpaceOnUse" color-interpolation-filters="sRGB">
<feFlood flood-opacity="0" result="BackgroundImageFix"/>
<feColorMatrix in="SourceAlpha" type="matrix" values="0 0 0 0 0 0 0 0 0 0 0 0 0 0 0 0 0 0 127 0" result="hardAlpha"/>
<feOffset dy="4"/>
<feGaussianBlur stdDeviation="2"/>
<feComposite in2="hardAlpha" operator="out"/>
<feColorMatrix type="matrix" values="0 0 0 0 0 0 0 0 0 0 0 0 0 0 0 0 0 0 0.25 0"/>
<feBlend mode="normal" in2="BackgroundImageFix" result="effect1_dropShadow_10_8"/>
<feBlend mode="normal" in="SourceGraphic" in2="effect1_dropShadow_10_8" result="shape"/>
</filter>
</defs>
</svg>
