<svg width="21" height="14" viewBox="0 0 21 14" fill="none" xmlns="http://www.w3.org/2000/svg">
<path d="M11.8624 13.3619L20.5484 3.10467C21.5735 1.89387 20.7404 0 19.1846 0L1.81265 0C1.46448 -0.000308037 1.1236 0.103091 0.830832 0.297817C0.538069 0.492544 0.30583 0.770342 0.161928 1.09794C0.0180264 1.42555 -0.0314407 1.78907 0.019455 2.14497C0.0703487 2.50087 0.219448 2.83408 0.448895 3.10467L9.1349 13.36C9.30489 13.561 9.51453 13.7221 9.74975 13.8325C9.98496 13.9429 10.2403 14 10.4986 14C10.757 14 11.0123 13.9429 11.2476 13.8325C11.4828 13.7221 11.6924 13.5629 11.8624 13.3619Z" fill="#5E523A"/>
</svg>
